<svg width="15" height="14" viewBox="0 0 15 14" fill="none" xmlns="http://www.w3.org/2000/svg">
<mask id="mask0_5326_32566" style="mask-type:luminance" maskUnits="userSpaceOnUse" x="0" y="0" width="15" height="14">
<path d="M0 0H15V14H0V0Z" fill="white"/>
</mask>
<g mask="url(#mask0_5326_32566)">
<mask id="mask1_5326_32566" style="mask-type:luminance" maskUnits="userSpaceOnUse" x="0" y="0" width="15" height="14">
<path d="M0 0H15V14H0V0Z" fill="white"/>
</mask>
<g mask="url(#mask1_5326_32566)">
<path d="M0.936523 3.5C0.936523 2.5335 1.77599 1.75 2.81152 1.75H12.1865C13.2221 1.75 14.0615 2.5335 14.0615 3.5V11.375C14.0615 12.3415 13.2221 13.125 12.1865 13.125H2.81152C1.77599 13.125 0.936523 12.3415 0.936523 11.375V3.5ZM2.81152 2.625C2.29376 2.625 1.87402 3.01675 1.87402 3.5V11.375C1.87402 11.8583 2.29376 12.25 2.81152 12.25H12.1865C12.7043 12.25 13.124 11.8583 13.124 11.375V3.5C13.124 3.01675 12.7043 2.625 12.1865 2.625H2.81152Z" fill="#606060"/>
<path d="M8.6709 5.6875C9.05922 5.6875 9.37402 5.98131 9.37402 6.34375C9.37402 6.70618 9.05922 7 8.6709 7C8.28257 7 7.96777 6.70618 7.96777 6.34375C7.96777 5.98131 8.28257 5.6875 8.6709 5.6875Z" fill="#606060"/>
<path d="M11.0151 5.6875C11.4035 5.6875 11.7183 5.98131 11.7183 6.34375C11.7183 6.70618 11.4035 7 11.0151 7C10.6268 7 10.312 6.70618 10.312 6.34375C10.312 5.98131 10.6268 5.6875 11.0151 5.6875Z" fill="#606060"/>
<path d="M8.6709 7.875C9.05922 7.875 9.37402 8.16881 9.37402 8.53125C9.37402 8.89368 9.05922 9.1875 8.6709 9.1875C8.28257 9.1875 7.96777 8.89368 7.96777 8.53125C7.96777 8.16881 8.28257 7.875 8.6709 7.875Z" fill="#606060"/>
<path d="M11.0151 7.875C11.4035 7.875 11.7183 8.16881 11.7183 8.53125C11.7183 8.89368 11.4035 9.1875 11.0151 9.1875C10.6268 9.1875 10.312 8.89368 10.312 8.53125C10.312 8.16881 10.6268 7.875 11.0151 7.875Z" fill="#606060"/>
<path d="M3.98389 7.875C4.37221 7.875 4.68701 8.16881 4.68701 8.53125C4.68701 8.89368 4.37221 9.1875 3.98389 9.1875C3.59556 9.1875 3.28076 8.89368 3.28076 8.53125C3.28076 8.16881 3.59556 7.875 3.98389 7.875Z" fill="#606060"/>
<path d="M6.32764 7.875C6.71596 7.875 7.03076 8.16881 7.03076 8.53125C7.03076 8.89368 6.71596 9.1875 6.32764 9.1875C5.93931 9.1875 5.62451 8.89368 5.62451 8.53125C5.62451 8.16881 5.93931 7.875 6.32764 7.875Z" fill="#606060"/>
<path d="M3.98389 10.0625C4.37221 10.0625 4.68701 10.3563 4.68701 10.7188C4.68701 11.0812 4.37221 11.375 3.98389 11.375C3.59556 11.375 3.28076 11.0812 3.28076 10.7188C3.28076 10.3563 3.59556 10.0625 3.98389 10.0625Z" fill="#606060"/>
<path d="M6.32764 10.0625C6.71596 10.0625 7.03076 10.3563 7.03076 10.7188C7.03076 11.0812 6.71596 11.375 6.32764 11.375C5.93931 11.375 5.62451 11.0812 5.62451 10.7188C5.62451 10.3563 5.93931 10.0625 6.32764 10.0625Z" fill="#606060"/>
<path d="M8.6709 10.0625C9.05922 10.0625 9.37402 10.3563 9.37402 10.7188C9.37402 11.0812 9.05922 11.375 8.6709 11.375C8.28257 11.375 7.96777 11.0812 7.96777 10.7188C7.96777 10.3563 8.28257 10.0625 8.6709 10.0625Z" fill="#606060"/>
<path fill-rule="evenodd" clip-rule="evenodd" d="M3.74951 0.875C3.49063 0.875 3.28076 1.07088 3.28076 1.3125V2.1875C3.28076 2.42912 3.49063 2.625 3.74951 2.625C4.00839 2.625 4.21826 2.42912 4.21826 2.1875V1.3125C4.21826 1.07088 4.00839 0.875 3.74951 0.875ZM11.2495 0.875C10.9906 0.875 10.7808 1.07088 10.7808 1.3125V2.1875C10.7808 2.42912 10.9906 2.625 11.2495 2.625C11.5084 2.625 11.7183 2.42912 11.7183 2.1875V1.3125C11.7183 1.07088 11.5084 0.875 11.2495 0.875Z" fill="#606060"/>
<path d="M13.5928 4.8125H1.40527V3.9375H13.5928V4.8125Z" fill="#606060"/>
</g>
</g>
</svg>
