<svg width="14" height="15" viewBox="0 0 14 15" fill="none" xmlns="http://www.w3.org/2000/svg">
<g clip-path="url(#clip0_3259_36145)">
<path d="M5.25 11.8794V12.75H0.4375C0.196875 12.75 0 12.5531 0 12.3125C0 9.03125 1.4 7.58313 2.26625 6.99688C1.65812 6.28813 1.3125 5.3825 1.3125 4.4375C1.3125 2.2675 3.08 0.5 5.25 0.5C7.42 0.5 9.1875 2.2675 9.1875 4.4375C9.1875 4.735 9.1525 5.0325 9.08687 5.31687C8.76313 5.32562 8.75 5.3125 8.3125 5.3125V4.4375C8.3125 2.74875 6.93875 1.375 5.25 1.375C3.56125 1.375 2.1875 2.74875 2.1875 4.4375C2.1875 5.26875 2.52875 6.05625 3.11937 6.63375C3.28125 6.65563 3.42125 6.76062 3.47812 6.92687C3.5525 7.15437 3.43 7.40375 3.2025 7.4825C3.115 7.51312 1.04125 8.28313 0.748125 11.8837H5.25437L5.25 11.8794ZM13.8731 13.7519C14.0437 13.9225 14.0437 14.1981 13.8731 14.3688C13.7856 14.4563 13.6763 14.4956 13.5625 14.4956C13.4487 14.4956 13.3394 14.4519 13.2519 14.3688L11.3269 12.4437C10.7319 12.9031 9.9925 13.1831 9.18312 13.1831C7.25375 13.1831 5.68313 11.6125 5.68313 9.68312C5.68313 7.75375 7.25375 6.18313 9.18312 6.18313C11.1125 6.18313 12.6831 7.75375 12.6831 9.68312C12.6831 10.4925 12.4075 11.2319 11.9437 11.8269L13.8688 13.7519H13.8731ZM11.6287 9.6875C11.6287 8.23938 10.4913 7.0625 9.09562 7.0625C7.7 7.0625 6.5625 8.23938 6.5625 9.6875C6.5625 11.1356 7.7 12.3125 9.09562 12.3125C10.4913 12.3125 11.6287 11.1356 11.6287 9.6875Z" fill="#4D6666"/>
</g>
<defs>
<clipPath id="clip0_3259_36145">
<rect width="14" height="14" fill="white" transform="translate(0 0.5)"/>
</clipPath>
</defs>
</svg>
