<svg width="20" height="18" viewBox="0 0 20 18" fill="none" xmlns="http://www.w3.org/2000/svg">
<path d="M4.5 18L3.5 17V13H0V11L1.5 8.35V6H0V4H9V6H7.5V8.35L9 11V13H5.5V17L4.5 18ZM2.3 11H6.7L5.5 8.9V6H3.5V8.9L2.3 11ZM11.1 2H0C0 1.45 0.195833 0.979167 0.5875 0.5875C0.979167 0.195833 1.45 0 2 0H11.1C11.0667 0.166667 11.0417 0.329167 11.025 0.4875C11.0083 0.645833 11 0.816667 11 1C11 1.18333 11.0083 1.35417 11.025 1.5125C11.0417 1.67083 11.0667 1.83333 11.1 2ZM18 16H10V14H18V5.575C18.4 5.39167 18.7667 5.16667 19.1 4.9C19.4333 4.63333 19.7333 4.33333 20 4V14C20 14.55 19.8042 15.0208 19.4125 15.4125C19.0208 15.8042 18.55 16 18 16Z" fill="#5856D6"/>
</svg>
