<svg width="1352" height="404" viewBox="0 0 1352 404" fill="none" xmlns="http://www.w3.org/2000/svg">
<g clip-path="url(#clip0_5272_28619)">
<path d="M709.316 366.079C709.316 366.079 708.653 361.377 706.611 359.305C704.026 356.588 701.125 356.577 699.8 356.414C690.284 355.727 676.011 355.727 676.011 355.727H675.978C675.978 355.727 661.705 355.727 652.189 356.414C650.864 356.577 647.964 356.588 645.378 359.305C643.336 361.377 642.673 366.079 642.673 366.079C642.673 366.079 642 371.599 642 377.13V382.312C642 387.832 642.684 393.352 642.684 393.352C642.684 393.352 643.347 398.054 645.389 400.127C647.974 402.843 651.374 402.756 652.884 403.039C658.316 403.563 676 403.727 676 403.727C676 403.727 690.284 403.705 699.8 403.017C701.125 402.854 704.026 402.843 706.611 400.127C708.653 398.054 709.316 393.352 709.316 393.352C709.316 393.352 710 387.832 710 382.312V377.13C710 371.599 709.316 366.079 709.316 366.079Z" fill="black" fill-opacity="0.66"/>
<path d="M668.982 369.398V388.577L687.351 379.02L668.982 369.398Z" fill="#EAEAEA"/>
</g>
<defs>
<clipPath id="clip0_5272_28619">
<rect width="68" height="48" fill="white" transform="translate(642 355.727)"/>
</clipPath>
</defs>
</svg>
